# xmcd CD database file
#
# Track frame offsets:
#	182
#	23357
#	54270
#	79595
#	104832
#	130370
#	152720
#	179607
#
# Disc length: 2763 seconds
#
# Revision: 0
# Processed by: cddbd v1.5.2PL0 Copyright (c) Steve Scherf et al.
# Submitted via: CDex 1.51
#
DISCID=5f0ac908
DTITLE=Paco de Lucia - Luzia
DYEAR=1900
DGENRE=Jazz
TTITLE0=Rio de la miel
TTITLE1=La villa vieja
TTITLE2=Calle municion
TTITLE3=Me regale
TTITLE4=Luzia
TTITLE5=Mantega colora
TTITLE6=El chorruelo
TTITLE7=Camaron
EXTD=
EXTT0=
EXTT1=
EXTT2=
EXTT3=
EXTT4=
EXTT5=
EXTT6=
EXTT7=
PLAYORDER=
